HIERARCHY
ROOT joint_Root
{
	OFFSET 0.0 0.0 0.0
	CHANNELS 6 Xposition Yposition Zposition Zrotation Xrotation Yrotation 
	JOINT Hips
	{
		OFFSET 4.5925 91.4895 -427.239
		CHANNELS 6 Xposition Yposition Zposition Zrotation Xrotation Yrotation 
		JOINT Spine
		{
			OFFSET 15.7357 0.0 0.0
			CHANNELS 6 Xposition Yposition Zposition Zrotation Xrotation Yrotation 
			JOINT Chest
			{
				OFFSET 8.98455 -0.406207 0.0
				CHANNELS 6 Xposition Yposition Zposition Zrotation Xrotation Yrotation 
				JOINT Neck
				{
					OFFSET 16.3773 0.0 0.0
					CHANNELS 6 Xposition Yposition Zposition Zrotation Xrotation Yrotation 
					JOINT Head
					{
						OFFSET 6.45672 0.0 0.0
						CHANNELS 6 Xposition Yposition Zposition Zrotation Xrotation Yrotation 
						End Site
						{
							OFFSET 0.0 0.0 0.0
						}
					}
				}
				JOINT Shoulder_L
				{
					OFFSET 12.9942 -0.242716 4.98039
					CHANNELS 6 Xposition Yposition Zposition Zrotation Xrotation Yrotation 
					JOINT UpperArm_L
					{
						OFFSET 5.34809 0.0 0.0
						CHANNELS 6 Xposition Yposition Zposition Zrotation Xrotation Yrotation 
						JOINT LowerArm_L
						{
							OFFSET 24.3286 1.87007e-05 0.0
							CHANNELS 6 Xposition Yposition Zposition Zrotation Xrotation Yrotation 
							JOINT Hand_L
							{
								OFFSET 22.2916 0.0 0.0
								CHANNELS 6 Xposition Yposition Zposition Zrotation Xrotation Yrotation 
								End Site
								{
									OFFSET 0.0 0.0 0.0
								}
							}
						}
					}
				}
				JOINT Shoulder_R
				{
					OFFSET 12.9945 -0.242716 -4.98039
					CHANNELS 6 Xposition Yposition Zposition Zrotation Xrotation Yrotation 
					JOINT UpperArm_R
					{
						OFFSET -5.34813 0.0 0.0
						CHANNELS 6 Xposition Yposition Zposition Zrotation Xrotation Yrotation 
						JOINT LowerArm_R
						{
							OFFSET -24.3289 0.000322201 0.0
							CHANNELS 6 Xposition Yposition Zposition Zrotation Xrotation Yrotation 
							JOINT Hand_R
							{
								OFFSET -22.2915 -0.000108084 0.0
								CHANNELS 6 Xposition Yposition Zposition Zrotation Xrotation Yrotation 
								End Site
								{
									OFFSET 0.0 0.0 0.0
								}
							}
						}
					}
				}
			}
		}
		JOINT UpperLeg_L
		{
			OFFSET -2.19248 -6.46944 0.0
			CHANNELS 6 Xposition Yposition Zposition Zrotation Xrotation Yrotation 
			JOINT LowerLeg_L
			{
				OFFSET 39.0811 0.0 -1.23785e-05
				CHANNELS 6 Xposition Yposition Zposition Zrotation Xrotation Yrotation 
				JOINT Foot_L
				{
					OFFSET 40.9854 0.0 -1.26872e-05
					CHANNELS 6 Xposition Yposition Zposition Zrotation Xrotation Yrotation 
					JOINT Toes_L
					{
						OFFSET 11.7543 0.0 0.0
						CHANNELS 6 Xposition Yposition Zposition Zrotation Xrotation Yrotation 
						End Site
						{
							OFFSET 0.0 0.0 0.0
						}
					}
				}
			}
		}
		JOINT UpperLeg_R
		{
			OFFSET -2.19251 6.46944 0.0
			CHANNELS 6 Xposition Yposition Zposition Zrotation Xrotation Yrotation 
			JOINT LowerLeg_R
			{
				OFFSET -39.0811 -0.00228153 -0.0401928
				CHANNELS 6 Xposition Yposition Zposition Zrotation Xrotation Yrotation 
				JOINT Foot_R
				{
					OFFSET -40.9854 0.0 0.0
					CHANNELS 6 Xposition Yposition Zposition Zrotation Xrotation Yrotation 
					JOINT Toes_R
					{
						OFFSET -11.7543 0.0 0.0
						CHANNELS 6 Xposition Yposition Zposition Zrotation Xrotation Yrotation 
						End Site
						{
							OFFSET 0.0 0.0 0.0
						}
					}
				}
			}
		}
	}
}
MOTION
Frames:	6
Frame Time:	0.0333333
0.000000 0.000000 0.000000 0.000000 0.000000 -0.000000 -2.242010 88.247600 -487.539000 89.478900 -2.284790 -2.619350 15.735700 0.000005 -0.000001 77.220900 82.435700 -77.091800 8.984550 -0.406207 -0.000000 7.000550 -3.335710 0.462045 16.377300 -0.000001 -0.000001 -3.869300 -2.395370 0.724486 6.456720 -0.000001 -0.000000 -7.472400 0.034250 0.042401 12.994200 -0.242716 4.980390 -90.389600 1.666390 -76.837700 5.348090 -0.000007 -0.000001 -60.464800 22.860500 -25.399100 24.328600 0.000019 0.000005 -0.938919 -0.327839 -70.575200 22.291600 -0.000001 0.000005 20.217100 5.498180 -6.468640 12.994500 -0.242716 -4.980390 88.662600 9.017890 -81.528100 -5.348130 -0.000001 -0.000004 -56.340800 28.746200 -12.786900 -24.328900 0.000322 -0.000009 -22.379700 -5.923190 -75.927700 -22.291500 -0.000108 -0.000004 24.289300 5.625150 -12.985900 -2.192480 -6.469440 -0.000000 -175.970000 -1.097000 -14.032300 39.081100 -0.000007 -0.000012 0.064359 -0.029077 65.682300 40.985400 -0.000006 -0.000013 -1.277640 4.769790 -47.239800 11.754300 -0.000000 0.000003 -0.004535 -0.056899 -18.891600 -2.192510 6.469440 -0.000001 -175.038000 14.333400 151.072000 -39.081100 -0.002282 -0.040193 0.058046 -0.058295 43.217900 -40.985400 0.000008 0.000006 9.789710 1.269830 -68.633500 -11.754300 -0.000006 -0.000006 -0.004950 -0.060977 -19.054100
0.000000 0.000000 0.000000 0.000000 0.000000 -0.000000 -2.301340 86.845400 -482.823000 89.051600 -3.602860 -1.739580 15.735700 0.000005 -0.000001 83.931300 82.264100 -83.538100 8.984550 -0.406207 -0.000000 7.627170 -1.629720 0.894158 16.377300 -0.000001 -0.000001 -3.985650 -2.030380 0.932142 6.456720 -0.000001 -0.000000 -7.339940 0.046815 -0.599738 12.994200 -0.242716 4.980390 -90.603900 2.559800 -76.721100 5.348090 -0.000007 -0.000001 -60.716700 28.153500 -19.712100 24.328600 0.000019 0.000005 2.460160 1.234850 -63.439700 22.291600 -0.000001 0.000005 19.151600 5.521380 -7.421540 12.994500 -0.242716 -4.980390 88.670200 9.642270 -82.109500 -5.348130 -0.000001 -0.000004 -49.288000 24.341900 -24.769500 -24.328900 0.000322 -0.000009 -23.670900 -3.066750 -83.042300 -22.291500 -0.000108 -0.000004 26.071200 5.621130 -12.709300 -2.192480 -6.469440 -0.000000 -175.401000 -2.302440 -19.161300 39.081100 -0.000007 -0.000012 0.084019 -0.022422 75.053800 40.985400 -0.000006 -0.000013 0.614508 2.857770 -53.852100 11.754300 -0.000000 0.000003 -0.004927 -0.060762 -19.049000 -2.192510 6.469440 -0.000001 -175.840000 11.138900 152.407000 -39.081100 -0.002282 -0.040193 0.064832 -0.053062 49.250100 -40.985400 0.000008 0.000006 9.029890 -1.143870 -73.394300 -11.754300 -0.000006 -0.000006 -0.154118 -0.194442 -17.022900
0.000000 0.000000 0.000000 0.000000 0.000000 -0.000000 -2.432730 85.983700 -478.352000 88.637600 -3.414870 -1.391790 15.735700 0.000005 -0.000001 86.175100 82.052300 -85.455800 8.984550 -0.406207 -0.000000 8.101940 -1.053580 1.511840 16.377300 -0.000001 -0.000001 -4.366840 -1.916660 1.285200 6.456720 -0.000001 -0.000000 -7.408070 0.367456 -1.152920 12.994200 -0.242716 4.980390 -90.841800 3.556070 -76.673300 5.348090 -0.000007 -0.000001 -63.470400 31.278300 -11.359600 24.328600 0.000019 0.000005 3.606020 2.332230 -57.141600 22.291600 -0.000001 0.000005 19.157100 5.514140 -7.112350 12.994500 -0.242716 -4.980390 88.821700 9.299360 -82.746800 -5.348130 -0.000001 -0.000004 -46.188300 18.284800 -36.301600 -24.328900 0.000322 -0.000009 -23.922500 -1.597080 -86.404700 -22.291500 -0.000108 -0.000004 27.172300 5.628390 -13.216600 -2.192480 -6.469440 -0.000000 -174.936000 -2.779270 -25.282000 39.081100 -0.000007 -0.000012 0.080919 -0.014462 79.861900 40.985400 -0.000006 -0.000013 2.829490 1.577380 -57.724900 11.754300 -0.000000 0.000003 -0.004870 -0.060213 -19.026600 -2.192510 6.469440 -0.000001 -176.277000 12.025400 155.025000 -39.081100 -0.002282 -0.040193 0.067351 -0.050367 51.845900 -40.985400 0.000008 0.000006 8.637330 -1.002980 -77.834100 -11.754300 -0.000006 -0.000006 -0.833363 -1.027260 -17.033000
0.000000 0.000000 0.000000 0.000000 0.000000 -0.000000 -2.314370 85.966900 -473.895000 88.937500 -3.161270 -1.710530 15.735700 0.000005 -0.000001 88.910300 82.138600 -88.238400 8.984550 -0.406207 -0.000000 7.956120 -0.296620 1.363040 16.377300 -0.000001 -0.000001 -4.569560 -2.426890 1.905580 6.456720 -0.000001 -0.000000 -7.585180 0.089395 -1.160400 12.994200 -0.242716 4.980390 -90.942400 4.000220 -76.732200 5.348090 -0.000007 -0.000001 -67.841500 31.523300 -1.139030 24.328600 0.000019 0.000005 2.978420 2.127820 -54.484300 22.291600 -0.000001 0.000005 18.553000 5.491500 -6.199830 12.994500 -0.242716 -4.980390 89.073000 7.974000 -83.347700 -5.348130 -0.000001 -0.000004 -47.377500 12.688600 -44.455200 -24.328900 0.000322 -0.000009 -22.472000 -1.016960 -87.542500 -22.291500 -0.000108 -0.000004 27.505700 5.632560 -13.530300 -2.192480 -6.469440 -0.000000 -175.680000 -4.242860 -30.772500 39.081100 -0.000007 -0.000012 0.086308 -0.017470 78.552700 40.985400 -0.000006 -0.000013 3.316600 0.895631 -61.191800 11.754300 -0.000000 0.000003 -0.004901 -0.060508 -19.038600 -2.192510 6.469440 -0.000001 -177.662000 13.675200 158.569000 -39.081100 -0.002282 -0.040193 0.057075 -0.043335 51.165800 -40.985400 0.000008 0.000006 8.267710 0.172238 -80.521600 -11.754300 -0.000006 -0.000006 -1.026970 -1.262010 -17.423400
0.000000 0.000000 0.000000 0.000000 0.000000 -0.000000 -2.092370 86.802800 -469.177000 89.565400 -3.434950 -2.303270 15.735700 0.000005 -0.000001 93.319400 82.394500 -93.084000 8.984550 -0.406207 -0.000000 7.418380 0.876699 0.413411 16.377300 -0.000001 -0.000001 -4.663940 -2.835990 2.509800 6.456720 -0.000001 -0.000000 -7.802260 -1.262330 -0.307102 12.994200 -0.242716 4.980390 -90.799700 3.189830 -75.915700 5.348090 -0.000007 -0.000001 -71.693600 30.349900 8.202230 24.328600 0.000019 0.000005 0.915771 0.633150 -55.382200 22.291600 -0.000001 0.000005 17.388600 5.494820 -6.321640 12.994500 -0.242716 -4.980390 89.262500 6.375730 -83.387400 -5.348130 -0.000001 -0.000004 -50.876000 9.436480 -48.866700 -24.328900 0.000322 -0.000009 -21.183800 -0.872112 -87.750100 -22.291500 -0.000108 -0.000004 27.824400 5.637030 -13.877800 -2.192480 -6.469440 -0.000000 -177.313000 -6.571230 -33.927600 39.081100 -0.000007 -0.000012 0.081261 -0.028102 70.919700 40.985400 -0.000006 -0.000013 2.678800 0.592934 -63.869000 11.754300 -0.000000 0.000003 -0.004987 -0.061350 -19.072900 -2.192510 6.469440 -0.000001 -179.643000 14.474000 163.451000 -39.081100 -0.002282 -0.040193 0.038718 -0.032685 47.332700 -40.985400 0.000008 0.000006 7.228740 1.852890 -81.157300 -11.754300 -0.000006 -0.000006 -0.488588 -0.600472 -17.225300
0.000000 0.000000 0.000000 0.000000 0.000000 -0.000000 -1.817660 88.053400 -464.130000 90.336200 -2.991740 -2.941670 15.735700 0.000005 -0.000001 96.884400 82.746900 -97.191500 8.984550 -0.406207 -0.000000 6.642610 1.736350 -0.714229 16.377300 -0.000001 -0.000001 -4.550130 -3.549580 2.957290 6.456720 -0.000001 -0.000000 -7.705310 -2.818490 0.190365 12.994200 -0.242716 4.980390 -90.423700 1.644860 -75.554100 5.348090 -0.000007 -0.000001 -74.734500 27.802200 15.726600 24.328600 0.000019 0.000005 0.217784 0.138809 -57.494000 22.291600 -0.000001 0.000005 16.827100 5.495120 -6.337080 12.994500 -0.242716 -4.980390 89.414600 5.067690 -83.402500 -5.348130 -0.000001 -0.000004 -53.738200 8.562650 -48.750300 -24.328900 0.000322 -0.000009 -23.397600 -0.631624 -88.538400 -22.291500 -0.000108 -0.000004 30.506000 5.647720 -14.765600 -2.192480 -6.469440 -0.000000 -179.506000 -8.109860 -34.659100 39.081100 -0.000007 -0.000012 0.048964 -0.030352 58.202000 40.985400 -0.000006 -0.000013 1.382490 -0.531571 -65.035300 11.754300 -0.000000 0.000003 -0.004072 -0.052198 -18.700100 -2.192510 6.469440 -0.000001 178.276000 14.437300 168.533000 -39.081100 -0.002282 -0.040193 0.030488 -0.029398 42.794500 -40.985400 0.000008 0.000006 6.237210 2.733120 -78.643700 -11.754300 -0.000006 -0.000006 -0.007516 -0.084035 -19.994600
